<svg width="850" height="259" viewBox="0 0 850 259" fill="none" xmlns="http://www.w3.org/2000/svg">
<rect x="5.5" y="5.5" width="242" height="242" rx="64.5" fill="white" stroke="url(#paint0_linear_74_13)" stroke-width="11"/>
<path d="M65.804 109.886H57.994C57.142 109.744 56.858 109.318 56.858 108.466V91.852C56.858 91 57.284 90.716 57.994 90.716H65.804V90.29C65.804 85.32 66.798 80.35 68.786 75.806C72.62 67.428 80.714 60.896 93.92 60.896C97.47 60.896 99.742 61.18 101.73 61.89C102.582 62.174 102.724 62.6 102.724 63.452V81.06C102.724 81.628 102.44 82.196 101.588 82.054C100.168 81.77 99.458 81.628 97.754 81.628C94.062 81.628 90.512 82.906 90.512 89.864V90.716H101.304C102.582 90.716 102.724 91.142 102.724 92.136V108.466C102.724 109.602 102.44 109.744 101.304 109.886H90.512V160.438C90.512 161.432 90.37 162 89.092 162H67.508C66.23 162 65.804 161.574 65.804 160.438V109.886ZM144.219 163.42C121.499 163.42 107.157 149.788 107.157 127.352C107.157 107.188 122.351 89.438 151.035 89.438C161.969 89.438 170.915 91.142 177.873 93.414C178.299 93.556 178.441 93.84 178.299 94.692C178.015 97.248 177.589 104.632 177.589 107.046V186.424C177.589 187.134 177.447 187.702 176.595 187.986C169.211 188.554 154.869 189.832 154.159 189.832C153.165 189.832 152.881 189.264 152.881 188.412V162.568C149.331 163.278 146.775 163.42 144.219 163.42ZM152.881 143.824V108.608C151.603 108.466 149.331 108.324 147.911 108.324C139.817 108.324 132.717 113.152 132.717 126.358C132.717 138.712 139.533 144.392 148.621 144.392C150.183 144.392 151.887 144.25 152.881 143.824ZM203.738 163.42C195.36 163.42 189.112 158.024 189.112 148.794C189.112 139.848 195.36 134.31 203.738 134.31C212.4 134.31 218.222 140.416 218.222 148.794C218.222 157.456 212.826 163.42 203.738 163.42Z" fill="url(#paint1_linear_74_13)"/>
<path d="M337 90.0058C337 72.885 350.879 59 368 59H819C836.121 59 850 72.8792 850 90V163C850 180.121 836.121 194 819 194H368C350.879 194 337 180.115 337 162.994C337 137.207 337 115.793 337 90.0058Z" fill="#FFEDF8"/>
<path d="M425.066 97.946C427.936 110.656 431.79 127.056 433.594 136.978H433.676C434.414 132.386 436.218 121.562 441.302 97.946C441.384 97.536 441.63 97.29 442.204 97.29H452.126C452.618 97.29 452.864 97.536 452.7 98.11L439.088 150.426C438.924 150.918 438.678 151 438.268 151H428.182C427.608 151 427.444 150.836 427.28 150.426C424.82 139.602 420.146 118.938 418.424 110.328H418.342C416.784 119.02 411.372 139.848 408.748 150.18C408.666 150.672 408.42 151 407.846 151H398.006C397.514 151 397.268 150.754 397.022 150.262L383.492 98.028C383.41 97.536 383.656 97.29 383.984 97.29H394.808C395.218 97.29 395.546 97.29 395.71 97.946C401.942 125.252 403.09 132.14 403.828 136.896H403.91C404.812 131.156 407.108 122.546 412.602 97.946C412.684 97.454 413.012 97.29 413.504 97.29H424.246C424.82 97.29 424.902 97.454 425.066 97.946ZM481.24 133.616H465.25C465.66 138.29 468.94 142.144 476.976 142.144C480.666 142.144 483.946 141.57 487.062 140.258C487.308 140.094 487.554 140.176 487.554 140.668V148.458C487.554 149.032 487.39 149.278 486.98 149.442C483.7 151 480.092 151.82 474.434 151.82C459.018 151.82 453.606 141.242 453.606 131.074C453.606 119.758 460.576 109.426 473.45 109.426C485.832 109.426 490.752 119.02 490.752 127.138C490.752 129.68 490.588 131.73 490.342 132.632C490.26 133.042 490.096 133.206 489.686 133.288C488.62 133.452 485.504 133.616 481.24 133.616ZM465.168 125.662H475.91C478.534 125.662 479.682 125.58 480.01 125.498C480.01 125.334 480.01 125.006 480.01 124.924C480.01 122.956 478.452 118.446 473.04 118.446C467.874 118.446 465.66 122.3 465.168 125.662ZM503.029 114.838H495.157C494.829 114.838 494.665 114.592 494.829 114.264C496.961 107.95 497.945 104.26 497.945 99.094C497.945 97.044 497.699 94.748 497.453 93.436C497.453 93.108 497.535 92.862 497.863 92.862H506.145C506.637 92.862 506.883 93.026 507.047 93.518C507.457 94.912 507.703 96.88 507.703 99.258C507.703 103.85 506.555 109.262 503.767 114.428C503.521 114.674 503.439 114.838 503.029 114.838ZM513.965 110.246H522.903C523.477 110.246 523.723 110.492 523.887 110.984C524.297 112.05 524.707 113.772 524.789 115.576C527.495 112.378 532.005 109.426 537.827 109.426C538.319 109.426 538.483 109.59 538.483 110.082V120.168C538.483 120.578 538.319 120.742 537.745 120.742C531.841 120.496 527.085 122.3 525.363 124.268L525.281 150.344C525.281 150.836 525.117 151 524.543 151H514.703C514.047 151 513.883 150.754 513.883 150.262V121.972C513.883 118.446 513.801 113.69 513.473 110.82C513.473 110.41 513.555 110.246 513.965 110.246ZM569.727 133.616H553.737C554.147 138.29 557.427 142.144 565.463 142.144C569.153 142.144 572.433 141.57 575.549 140.258C575.795 140.094 576.041 140.176 576.041 140.668V148.458C576.041 149.032 575.877 149.278 575.467 149.442C572.187 151 568.579 151.82 562.921 151.82C547.505 151.82 542.093 141.242 542.093 131.074C542.093 119.758 549.063 109.426 561.937 109.426C574.319 109.426 579.239 119.02 579.239 127.138C579.239 129.68 579.075 131.73 578.829 132.632C578.747 133.042 578.583 133.206 578.173 133.288C577.107 133.452 573.991 133.616 569.727 133.616ZM553.655 125.662H564.397C567.021 125.662 568.169 125.58 568.497 125.498C568.497 125.334 568.497 125.006 568.497 124.924C568.497 122.956 566.939 118.446 561.527 118.446C556.361 118.446 554.147 122.3 553.655 125.662ZM616.49 121.398V150.344C616.49 150.836 616.326 151 615.834 151H605.748C605.256 151 605.092 150.754 605.092 150.344V93.436C605.092 93.108 605.174 92.862 605.748 92.862H615.834C616.326 92.862 616.49 93.026 616.49 93.436V112.788C619.442 110.82 622.64 109.426 627.232 109.426C633.628 109.426 641.09 112.706 641.09 125.908V150.262C641.09 150.754 640.926 151 640.352 151H630.512C629.938 151 629.692 150.754 629.692 150.262V127.056C629.692 121.89 627.478 119.348 623.214 119.348C620.672 119.348 618.458 120.004 616.49 121.398ZM650.897 150.262V110.902C650.897 110.492 651.061 110.246 651.553 110.246H661.639C662.131 110.246 662.295 110.41 662.295 110.902V150.262C662.295 150.754 662.213 151 661.557 151H651.717C651.143 151 650.897 150.754 650.897 150.262ZM656.637 105.9C652.783 105.9 650.323 103.358 650.323 99.504C650.323 95.814 653.029 93.19 656.719 93.19C660.655 93.19 663.033 95.814 663.033 99.504C663.033 103.358 660.491 105.9 656.637 105.9ZM671.879 110.246H680.817C681.391 110.246 681.637 110.492 681.801 110.984C682.211 112.05 682.621 113.772 682.703 115.576C685.409 112.378 689.919 109.426 695.741 109.426C696.233 109.426 696.397 109.59 696.397 110.082V120.168C696.397 120.578 696.233 120.742 695.659 120.742C689.755 120.496 684.999 122.3 683.277 124.268L683.195 150.344C683.195 150.836 683.031 151 682.457 151H672.617C671.961 151 671.797 150.754 671.797 150.262V121.972C671.797 118.446 671.715 113.69 671.387 110.82C671.387 110.41 671.469 110.246 671.879 110.246ZM702.467 150.262V110.902C702.467 110.492 702.631 110.246 703.123 110.246H713.209C713.701 110.246 713.865 110.41 713.865 110.902V150.262C713.865 150.754 713.783 151 713.127 151H703.287C702.713 151 702.467 150.754 702.467 150.262ZM708.207 105.9C704.353 105.9 701.893 103.358 701.893 99.504C701.893 95.814 704.599 93.19 708.289 93.19C712.225 93.19 714.603 95.814 714.603 99.504C714.603 103.358 712.061 105.9 708.207 105.9ZM723.367 150.262V119.758C723.367 116.97 723.203 112.706 723.039 110.902C722.957 110.492 723.121 110.246 723.613 110.246H732.223C732.879 110.246 733.125 110.492 733.289 110.902C733.617 111.64 733.781 112.46 733.945 113.608C737.389 110.82 741.243 109.426 745.589 109.426C751.903 109.426 759.365 112.706 759.365 125.908V150.262C759.365 150.754 759.201 151 758.627 151H748.787C748.213 151 747.967 150.754 747.967 150.262V126.892C747.967 121.972 745.835 119.348 741.571 119.348C738.783 119.348 736.487 120.332 734.765 121.89V150.344C734.765 150.754 734.519 151 734.027 151H724.105C723.531 151 723.367 150.754 723.367 150.262ZM787.405 151L778.303 150.672C776.499 151.984 775.187 154.198 775.187 155.018C775.187 157.56 778.795 160.348 785.191 160.348C792.489 160.348 795.605 157.806 795.605 155.1C795.605 152.066 791.997 151.246 787.405 151ZM783.223 117.626C779.697 117.626 777.483 119.676 777.483 123.284C777.483 126.482 779.533 128.86 783.305 128.86C786.913 128.86 788.963 126.892 788.963 123.53C788.963 120.086 787.323 117.626 783.223 117.626ZM781.501 141.16L789.947 141.488C801.673 142.062 806.019 146.818 806.019 153.296C806.019 161.824 797.655 168.712 784.453 168.712C770.759 168.712 764.773 161.906 764.773 156.002C764.773 153.378 766.905 150.098 772.317 145.588C771.087 143.784 770.513 141.57 770.595 139.438C770.595 137.552 771.169 135.666 772.071 134.026C768.709 131.894 766.413 128.532 766.413 123.448C766.413 115.576 772.563 109.426 783.223 109.426C786.257 109.426 789.127 109.754 791.013 110.082C791.751 110.246 792.407 110.246 792.981 110.246H804.215C804.625 110.246 804.789 110.41 804.789 110.82V118.446C804.789 118.856 804.625 119.02 804.215 119.02C802.985 119.02 800.279 118.774 798.557 118.61C799.213 119.758 799.787 121.48 799.787 123.94C799.787 132.632 792.653 136.978 783.551 136.978C782.649 136.978 781.665 136.896 780.763 136.814C780.517 137.47 780.435 138.29 780.599 139.028C780.681 139.766 781.009 140.504 781.501 141.16Z" fill="#EC53AF"/>
<path d="M304.125 90.1891C304.125 90.1891 347.95 70.6236 342.5 73.999C337.05 77.3744 337.806 105.569 338.394 108.468L304.125 90.1891Z" fill="#FFEDF8"/>
<defs>
<linearGradient id="paint0_linear_74_13" x1="11.5629" y1="18.7" x2="293.903" y2="103.462" gradientUnits="userSpaceOnUse">
<stop offset="0.439295" stop-color="#FF1D89"/>
<stop offset="1" stop-color="#AC0BFA"/>
</linearGradient>
<linearGradient id="paint1_linear_74_13" x1="65.2592" y1="105.212" x2="193.641" y2="149.506" gradientUnits="userSpaceOnUse">
<stop stop-color="#FF1D89"/>
<stop offset="0.439295" stop-color="#FF1D89"/>
<stop offset="1" stop-color="#AC0BFA"/>
</linearGradient>
</defs>
</svg>
